<?xml version="1.0" standalone="no"?>
<!DOCTYPE svg PUBLIC "-//W3C//DTD SVG 20010904//EN"
 "http://www.w3.org/TR/2001/REC-SVG-20010904/DTD/svg10.dtd">
<svg version="1.0" xmlns="http://www.w3.org/2000/svg"
 width="3000.000000pt" height="3000.000000pt" viewBox="0 0 3000.000000 3000.000000"
 preserveAspectRatio="xMidYMid meet">
<metadata>
Created by potrace 1.11, written by Peter Selinger 2001-2013
</metadata>
<g transform="translate(0.000000,3000.000000) scale(0.100000,-0.100000)"
fill="#000000" stroke="none">
<path d="M20325 25509 c-1456 -100 -2767 -604 -3790 -1455 -161 -134 -489
-460 -616 -614 -576 -693 -901 -1439 -984 -2260 -21 -206 -16 -656 9 -850 24
-182 72 -413 123 -590 436 -1522 1817 -2790 3647 -3346 194 -59 485 -133 634
-161 50 -9 92 -22 92 -28 0 -19 -79 -304 -131 -474 -241 -782 -541 -1367 -883
-1720 l-101 -104 120 6 c737 37 1608 685 2487 1847 68 91 151 202 183 247 48
68 64 83 89 87 17 2 126 11 241 20 562 43 1167 169 1712 357 1842 637 3173
2005 3482 3579 50 258 63 384 68 679 8 439 -31 747 -148 1154 -350 1221 -1343
2313 -2694 2963 -795 383 -1642 600 -2585 664 -170 11 -782 11 -955 -1z"/>
<path d="M11215 20789 c-1392 -97 -2723 -588 -3830 -1414 -1320 -983 -2256
-2369 -2664 -3945 -74 -284 -131 -581 -170 -890 -69 -536 -69 -1244 0 -1780
105 -823 334 -1571 704 -2305 267 -528 565 -977 942 -1416 831 -968 1866
-1684 3054 -2114 592 -214 1185 -342 1884 -407 189 -18 971 -18 1160 0 973 90
1784 312 2603 712 763 373 1409 840 2002 1446 545 558 965 1148 1300 1829 358
725 577 1452 679 2255 36 282 64 750 45 750 -4 0 -66 -14 -138 -31 -284 -67
-399 -74 -565 -34 -87 21 -114 33 -168 72 -36 27 -84 75 -111 113 -39 54 -51
81 -71 164 -29 121 -29 121 0 242 28 117 53 156 204 314 160 168 245 293 391
575 70 134 216 465 229 518 6 24 -36 186 -105 402 l-29 90 -153 48 c-794 252
-1544 666 -2208 1217 -166 138 -529 503 -661 665 -461 565 -754 1102 -918
1680 -44 158 -126 515 -141 618 -7 48 -18 94 -24 101 -26 33 -550 212 -860
295 -439 118 -933 199 -1404 231 -177 12 -800 11 -977 -1z m1079 -4339 c1065
-162 1946 -894 2276 -1890 103 -309 134 -507 134 -860 0 -283 -9 -368 -60
-598 -223 -1010 -1030 -1829 -2060 -2093 -267 -68 -398 -83 -719 -83 -241 0
-300 3 -424 22 -1075 168 -1950 893 -2281 1892 -103 309 -134 507 -134 860 0
283 9 368 60 598 177 803 730 1502 1485 1876 287 143 574 234 871 276 201 28
206 28 473 25 181 -3 274 -9 379 -25z m-3320 -5225 c3 -9 43 -73 89 -143 487
-744 1264 -1269 2142 -1447 239 -48 414 -65 680 -65 266 0 441 17 680 65 442
90 847 259 1215 509 354 240 696 584 919 926 41 63 76 116 77 118 4 6 235 -94
397 -170 808 -380 1499 -906 1978 -1505 43 -54 76 -100 73 -102 -2 -2 3 -13
12 -22 34 -38 26 -68 -39 -148 -355 -436 -788 -852 -1242 -1191 -1097 -821
-2353 -1287 -3755 -1391 -212 -16 -758 -16 -970 0 -1618 120 -3064 732 -4250
1796 -268 241 -713 718 -716 768 -1 12 6 33 16 47 10 14 17 28 16 32 -2 12
144 204 250 328 554 648 1378 1209 2314 1576 98 38 106 40 114 19z"/>
</g>
</svg>
